HIERARCHY
ROOT hip
{
  OFFSET 0 0 0
  CHANNELS 6 Xposition Yposition Zposition Zrotation Yrotation Xrotation
  JOINT abdomen
  {
    OFFSET 0 20.6881 -0.73152
    CHANNELS 3 Zrotation Xrotation Yrotation
    JOINT chest
    {
      OFFSET 0 11.7043 -0.48768
      CHANNELS 3 Zrotation Xrotation Yrotation
      JOINT neck
      {
        OFFSET 0 22.1894 -2.19456
        CHANNELS 3 Zrotation Xrotation Yrotation
        JOINT head
        {
          OFFSET -0.24384 7.07133 1.2192
          CHANNELS 3 Zrotation Xrotation Yrotation
          JOINT leftEye
          {
            OFFSET 4.14528 8.04674 8.04672
            CHANNELS 3 Zrotation Xrotation Yrotation
            End Site
            {
              OFFSET 1 0 0
            }
          }
          JOINT rightEye
          {
            OFFSET -3.6576 8.04674 8.04672
            CHANNELS 3 Zrotation Xrotation Yrotation
            End Site
            {
              OFFSET 1 0 0
            }
          }
        }
      }
      JOINT rCollar
      {
        OFFSET -2.68224 19.2634 -4.8768
        CHANNELS 3 Zrotation Xrotation Yrotation
        JOINT rShldr
        {
          OFFSET -8.77824 -1.95073 1.46304
          CHANNELS 3 Zrotation Xrotation Yrotation
          JOINT rForeArm
          {
            OFFSET -28.1742 -1.7115 0.48768
            CHANNELS 3 Zrotation Xrotation Yrotation
            JOINT rHand
            {
              OFFSET -22.5879 0.773209 7.07136
              CHANNELS 3 Zrotation Xrotation Yrotation
              JOINT rThumb1
              {
                OFFSET -1.2192 -0.487915 3.41376
                CHANNELS 3 Zrotation Xrotation Yrotation
                JOINT rThumb2
                {
                  OFFSET -3.37035 -0.52449 3.41376
                  CHANNELS 3 Zrotation Xrotation Yrotation
                  End Site
                  {
                    OFFSET -1.78271 -1.18214 1.43049
                  }
                }
              }
              JOINT rIndex1
              {
                OFFSET -7.75947 0.938293 5.60832
                CHANNELS 3 Zrotation Xrotation Yrotation
                JOINT rIndex2
                {
                  OFFSET -2.54057 -0.884171 1.56538
                  CHANNELS 3 Zrotation Xrotation Yrotation
                  End Site
                  {
                    OFFSET -1.62519 -0.234802 1.16502
                  }
                }
              }
              JOINT rMid1
              {
                OFFSET -8.24714 1.18213 3.41376
                CHANNELS 3 Zrotation Xrotation Yrotation
                JOINT rMid2
                {
                  OFFSET -3.10165 -0.590103 1.0647
                  CHANNELS 3 Zrotation Xrotation Yrotation
                  End Site
                  {
                    OFFSET -2.48547 -0.328903 0.83742
                  }
                }
              }
              JOINT rRing1
              {
                OFFSET -8.82822 0.546677 1.51678
                CHANNELS 3 Zrotation Xrotation Yrotation
                JOINT rRing2
                {
                  OFFSET -2.60934 -0.819778 -0.0198488
                  CHANNELS 3 Zrotation Xrotation Yrotation
                  End Site
                  {
                    OFFSET -2.33842 -0.294052 0.168128
                  }
                }
              }
              JOINT rPinky1
              {
                OFFSET -8.27202 -0.0477905 -0.4584
                CHANNELS 3 Zrotation Xrotation Yrotation
                JOINT rPinky2
                {
                  OFFSET -1.82734 -0.647385 -0.700984
                  CHANNELS 3 Zrotation Xrotation Yrotation
                  End Site
                  {
                    OFFSET -1.69225 -0.51767 -0.607171
                  }
                }
              }
            }
          }
        }
      }
      JOINT lCollar
      {
        OFFSET 2.68224 19.2634 -4.8768
        CHANNELS 3 Zrotation Xrotation Yrotation
        JOINT lShldr
        {
          OFFSET 8.77824 -1.95073 1.46304
          CHANNELS 3 Zrotation Xrotation Yrotation
          JOINT lForeArm
          {
            OFFSET 28.1742 -1.7115 0.48768
            CHANNELS 3 Zrotation Xrotation Yrotation
            JOINT lHand
            {
              OFFSET 22.5879 0.773209 7.07136
              CHANNELS 3 Zrotation Xrotation Yrotation
              JOINT lThumb1
              {
                OFFSET 1.2192 -0.487915 3.41376
                CHANNELS 3 Zrotation Xrotation Yrotation
                JOINT lThumb2
                {
                  OFFSET 3.37035 -0.52449 3.41376
                  CHANNELS 3 Zrotation Xrotation Yrotation
                  End Site
                  {
                    OFFSET 1.78271 -1.18214 1.43049
                  }
                }
              }
              JOINT lIndex1
              {
                OFFSET 7.75947 0.938293 5.60832
                CHANNELS 3 Zrotation Xrotation Yrotation
                JOINT lIndex2
                {
                  OFFSET 2.54057 -0.884171 1.56538
                  CHANNELS 3 Zrotation Xrotation Yrotation
                  End Site
                  {
                    OFFSET 1.62519 -0.234802 1.16502
                  }
                }
              }
              JOINT lMid1
              {
                OFFSET 8.24714 1.18213 3.41376
                CHANNELS 3 Zrotation Xrotation Yrotation
                JOINT lMid2
                {
                  OFFSET 3.10165 -0.590103 1.0647
                  CHANNELS 3 Zrotation Xrotation Yrotation
                  End Site
                  {
                    OFFSET 2.48547 -0.328903 0.83742
                  }
                }
              }
              JOINT lRing1
              {
                OFFSET 8.82822 0.546677 1.51678
                CHANNELS 3 Zrotation Xrotation Yrotation
                JOINT lRing2
                {
                  OFFSET 2.60934 -0.819778 -0.0198488
                  CHANNELS 3 Zrotation Xrotation Yrotation
                  End Site
                  {
                    OFFSET 2.33842 -0.294052 0.168128
                  }
                }
              }
              JOINT lPinky1
              {
                OFFSET 8.27202 -0.0477905 -0.4584
                CHANNELS 3 Zrotation Xrotation Yrotation
                JOINT lPinky2
                {
                  OFFSET 1.82734 -0.647385 -0.700984
                  CHANNELS 3 Zrotation Xrotation Yrotation
                  End Site
                  {
                    OFFSET 1.69225 -0.51767 -0.607171
                  }
                }
              }
            }
          }
        }
      }
    }
  }
  JOINT rButtock
  {
    OFFSET -8.77824 4.35084 1.2192
    CHANNELS 3 Zrotation Xrotation Yrotation
    JOINT rThigh
    {
      OFFSET 0 -1.70687 -2.19456
      CHANNELS 3 Zrotation Xrotation Yrotation
      JOINT rShin
      {
        OFFSET 0 -36.8199 0.73152
        CHANNELS 3 Zrotation Xrotation Yrotation
        JOINT rFoot
        {
          OFFSET 0.73152 -45.1104 -5.12064
          CHANNELS 3 Zrotation Xrotation Yrotation
          End Site
          {
            OFFSET -1.1221 -3.69964 12.103
          }
        }
      }
    }
  }
  JOINT lButtock
  {
    OFFSET 8.77824 4.35084 1.2192
    CHANNELS 3 Zrotation Xrotation Yrotation
    JOINT lThigh
    {
      OFFSET 0 -1.70687 -2.19456
      CHANNELS 3 Zrotation Xrotation Yrotation
      JOINT lShin
      {
        OFFSET 0 -36.8199 0.73152
        CHANNELS 3 Zrotation Xrotation Yrotation
        JOINT lFoot
        {
          OFFSET -0.73152 -45.1104 -5.12064
          CHANNELS 3 Zrotation Xrotation Yrotation
          End Site
          {
            OFFSET 1.1221 -3.69964 12.103
          }
        }
      }
    }
  }
}
MOTION
Frames:	4
Frame Time:	0.03333
-4.443710722004835 52.216615204734474 -25.378484427212268 68.22374725341797 44.171966552734375 73.3086929321289 -25.482316970825195 22.645492553710938 7.868119716644287 -5.772742748260498 -11.243008613586426 1.1871349811553955 -0.41830793023109436 10.592110633850098 8.458755493164062 -18.09000015258789 -22.249460220336914 16.17717742919922 -0.03336354345083237 -0.10445601493120193 0.9388571381568909 0.08552185446023941 0.17085927724838257 0.43070149421691895 -0.36471790075302124 -0.7058665156364441 0.30054476857185364 0.46942418813705444 55.18740463256836 44.06451416015625 -28.02162742614746 -39.23511505126953 81.99252319335938 -0.4510858356952667 8.5158052444458 1.552474856376648 0.09556199610233307 -0.40152695775032043 0.04031500220298767 0.3366645276546478 0.30622416734695435 0.08118316531181335 0.2513364255428314 0.18222089111804962 0.9800652861595154 7.970338344573975 5.177720546722412 0.012119594030082226 -0.09032384306192398 -0.3514910638332367 0.41199448704719543 2.9122743606567383 0.550028383731842 0.4139196276664734 -0.1458846479654312 -0.8094437718391418 -0.1021498367190361 10.398272514343262 1.2904744148254395 0.15096090734004974 -0.9391453862190247 0.539570152759552 -0.2225576490163803 2.067991018295288 0.12626893818378448 -0.46227678656578064 -0.7294344305992126 -0.1727570742368698 0.8955438137054443 -52.55437469482422 -21.240371704101562 13.544677734375 16.479963302612305 -8.51211166381836 -29.4916934967041 -0.2145882248878479 -10.519868850708008 -0.06737542897462845 0.03260708972811699 -0.12296587973833084 0.022789720445871353 0.03492870181798935 -0.24982653558254242 0.1742890477180481 0.25929316878318787 -0.5972151160240173 0.1384468376636505 -7.457934379577637 5.515350341796875 -0.15879566967487335 -0.31650933623313904 0.12522916495800018 0.43014630675315857 -2.8488428592681885 1.3255280256271362 0.40569740533828735 -0.12082076072692871 0.5391323566436768 -0.27651211619377136 -9.920392036437988 0.716218888759613 0.21979044377803802 0.2928461730480194 -0.088703453540802 0.37811586260795593 -2.2482903003692627 -0.8853456377983093 0.49484142661094666 -0.02447281777858734 0.24689243733882904 0.3474380075931549 -44.15229797363281 -27.955219268798828 -9.503328323364258 -0.23096588253974915 31.09882926940918 0.826099157333374 -0.9133653044700623 -1.9177577495574951 -7.036787509918213 -0.07597854733467102 0.1944788098335266 0.4901618957519531 54.667842864990234 -6.559675216674805 11.930395126342773 -0.44528043270111084 14.127435684204102 -0.08339634537696838 -0.5665352940559387 5.79495096206665 21.665138244628906
-4.486646038179476 52.251339886474824 -25.08419596178619 67.74771118164062 43.64933776855469 72.33403015136719 -25.02847671508789 22.971824645996094 7.493756294250488 -5.728430271148682 -10.872682571411133 1.0081042051315308 0.0050527676939964294 10.076102256774902 8.083466529846191 -18.814373016357422 -21.540178298950195 15.215341567993164 0.10010804980993271 -0.10241445153951645 1.035266399383545 0.4016309082508087 0.1498834788799286 0.5631742477416992 -0.2947324514389038 -0.4139474332332611 0.48820406198501587 -2.991523265838623 54.73880386352539 48.46772766113281 -28.236709594726562 -39.13080978393555 82.14348602294922 -0.5861465334892273 7.042006969451904 1.207924723625183 0.17811569571495056 -0.1440570205450058 -0.22598205506801605 0.3664311170578003 0.310801237821579 -0.003749862778931856 0.3695087432861328 0.05920438840985298 0.7325792908668518 7.753507614135742 5.519596099853516 -0.004084710497409105 -0.25192952156066895 -0.14662030339241028 0.6481398344039917 2.989931106567383 0.23313672840595245 0.49655070900917053 -0.04495987296104431 -0.7695539593696594 0.033563267439603806 10.38156795501709 1.2737541198730469 0.13803568482398987 -0.8076761960983276 0.6361834406852722 -0.045201417058706284 2.0675318241119385 -0.018020236864686012 -0.6015405654907227 -0.6894856095314026 -0.3148611783981323 0.7432569861412048 -53.10673904418945 -25.787988662719727 15.791836738586426 14.997598648071289 -6.9998040199279785 -26.17955207824707 -0.24567312002182007 -4.897915840148926 -0.9022527933120728 0.15599262714385986 -0.20588159561157227 0.14992274343967438 0.09828797727823257 -0.21548515558242798 -0.09674614667892456 0.4635426104068756 -0.7016744017601013 0.05194459855556488 -7.620329856872559 5.691407203674316 -0.1596529483795166 -0.2980758547782898 0.18724802136421204 0.36338159441947937 -2.9352073669433594 1.405592918395996 0.30314093828201294 -0.06362298876047134 0.7225350141525269 -0.27323561906814575 -9.920110702514648 0.7880823016166687 0.3679257333278656 0.10734973102807999 -0.08199553191661835 0.42791345715522766 -2.3262150287628174 -0.9998735785484314 0.633435845375061 -0.052549444139003754 0.4145234227180481 0.35663077235221863 -43.18284225463867 -24.710519790649414 -6.6488938331604 -0.2718547284603119 25.78824234008789 0.6340306997299194 -0.8749864101409912 -1.3452646732330322 -8.699394226074219 -0.11426660418510437 -0.3801986575126648 0.4718773663043976 55.31000900268555 -2.8581948280334473 8.214919090270996 -0.07861871272325516 7.094689846038818 -0.24501676857471466 -1.4232913255691528 8.574380874633789 22.666013717651367
-4.760258400410015 52.137733350009995 -24.91044487390371 69.3579330444336 43.439945220947266 71.9104232788086 -23.600372314453125 23.74092674255371 7.197940826416016 -5.720478057861328 -10.465224266052246 0.8418775796890259 0.5666235089302063 9.727910041809082 7.624989032745361 -19.356624603271484 -20.5203857421875 14.18071174621582 0.25249555706977844 -0.08375972509384155 0.9761360287666321 0.5154517889022827 0.11009101569652557 0.6317479610443115 -0.20160603523254395 0.009370951913297176 0.6336182951927185 -4.913745403289795 54.9122314453125 52.184654235839844 -28.35588264465332 -39.045555114746094 82.25342559814453 -0.37621787190437317 5.763015270233154 0.784730851650238 0.09784939140081406 0.18944914638996124 -0.3499712646007538 0.039530109614133835 0.09336386620998383 -0.017417006194591522 0.3654782772064209 0.03962275758385658 0.4763723611831665 7.587269306182861 5.770980358123779 -0.003096770029515028 -0.29728370904922485 -0.04368133842945099 0.6869158148765564 2.99373459815979 -0.01899995282292366 0.5406813025474548 0.017759237438440323 -0.5742098689079285 0.1399906873703003 10.563178062438965 1.2845836877822876 0.14336054027080536 -0.7230045795440674 0.6388044953346252 0.17618471384048462 2.1214840412139893 -0.13070374727249146 -0.6883805990219116 -0.4826280176639557 -0.5031630992889404 0.5876132845878601 -54.7190055847168 -29.24256134033203 16.94621467590332 14.243684768676758 -6.468918800354004 -24.705974578857422 -0.2581447660923004 -2.03413987159729 -1.0201905965805054 0.11539807915687561 -0.2858945429325104 0.20791980624198914 -0.1694888472557068 -0.022751914337277412 -0.23635639250278473 0.566188395023346 -0.6950016617774963 0.16586855053901672 -7.6172356605529785 5.900302886962891 -0.18688732385635376 -0.3663530647754669 0.156446173787117 0.16924701631069183 -2.916085720062256 1.3057279586791992 0.14730319380760193 0.017059404402971268 0.6632235050201416 -0.14649376273155212 -9.992989540100098 0.9138774275779724 0.42854687571525574 -0.04101995751261711 -0.04388584941625595 0.5443796515464783 -2.3722195625305176 -1.1674818992614746 0.5735055804252625 -0.026515761390328407 0.5552529692649841 0.39658841490745544 -41.77921676635742 -22.19093894958496 -3.1174938678741455 -0.12043088674545288 21.213424682617188 0.3051949441432953 -1.001423954963684 -1.0277221202850342 -12.258455276489258 -0.15296922624111176 -0.7990550398826599 0.4191950559616089 56.94122314453125 -4.172287464141846 8.873397827148438 0.12194254994392395 8.318133354187012 -0.3810681998729706 -1.790514588356018 9.614075660705566 21.877750396728516
-5.283695283539231 51.971442149382284 -24.963506065584813 72.55216217041016 43.77651596069336 73.08954620361328 -21.157499313354492 24.98021125793457 6.8561530113220215 -5.734134197235107 -10.065926551818848 0.8181238174438477 1.3673019409179688 9.645282745361328 7.150268077850342 -19.762475967407227 -19.26656150817871 13.313729286193848 0.3310375213623047 -0.061536017805337906 0.7081283926963806 0.37758851051330566 -0.0375899001955986 0.5487929582595825 -0.13803230226039886 0.42579683661460876 0.7042514085769653 -4.926114082336426 55.021114349365234 54.59070587158203 -28.373289108276367 -38.9948844909668 82.39434814453125 0.03502403199672699 4.993851184844971 0.5412802696228027 -0.1051005870103836 0.28548726439476013 -0.325469046831131 -0.5112671256065369 -0.2538410723209381 0.08519165962934494 0.2284720540046692 0.19699208438396454 0.38266655802726746 7.634191036224365 5.864910125732422 -0.08865168690681458 -0.21863941848278046 -0.13184180855751038 0.5336997509002686 2.927868127822876 -0.03263290598988533 0.5611335635185242 0.09704488515853882 -0.25453177094459534 0.20728936791419983 10.793465614318848 1.3050411939620972 0.0420880950987339 -0.6578376889228821 0.5683780312538147 0.28918910026550293 2.2149136066436768 -0.24322806298732758 -0.6693147420883179 -0.22449418902397156 -0.5327193737030029 0.3595806658267975 -57.765892028808594 -31.116079330444336 16.248146057128906 14.127974510192871 -6.803142547607422 -24.826398849487305 -0.1569727063179016 -3.1202685832977295 -0.25640183687210083 0.10343020409345627 -0.38113245368003845 0.20743432641029358 -0.4626704156398773 0.15584494173526764 -0.15832504630088806 0.3264240622520447 -0.589567244052887 0.32130569219589233 -7.5432281494140625 6.075447082519531 -0.2070416957139969 -0.4465266168117523 0.12062833458185196 -0.08455601334571838 -2.769751787185669 1.0954980850219727 -0.00323187536559999 0.16563144326210022 0.38161376118659973 0.013709098100662231 -10.069623947143555 0.9407239556312561 0.43129125237464905 -0.1960587203502655 0.06935257464647293 0.7275473475456238 -2.3366849422454834 -1.3196443319320679 0.4685251712799072 0.057231854647397995 0.6674808263778687 0.42954882979393005 -41.06685256958008 -20.317148208618164 0.31867069005966187 0.08128037303686142 18.103479385375977 0.006910824216902256 -1.020249366760254 -0.648629903793335 -16.572185516357422 -0.09071791172027588 -0.7339274287223816 0.43151378631591797 61.03163146972656 -11.00248908996582 14.630086898803711 0.12491227686405182 18.682897567749023 -0.5723424553871155 -1.449171543121338 8.600335121154785 19.680639266967773
